C:\GBW_MyPrograms\KinderuniversiteitApp\Resultaten\TymenKool\SpongeBob\SpongeBob_v1.mot
version=1
nRows=14
nColumns=29
inDegrees=yes
endheader
                time	         pelvis_tilt	           pelvis_tx	           pelvis_ty	       hip_flexion_l	       hip_flexion_r	        knee_angle_l	        knee_angle_r	       ankle_angle_l	       ankle_angle_r	    lumbar_extension	hamstrings_r/activation	bifemsh_r/activation	glut_max_r/activation	iliopsoas_r/activation	rect_fem_r/activation	  vasti_r/activation	gastroc_r/activation	 soleus_r/activation	tib_ant_r/activation	hamstrings_l/activation	bifemsh_l/activation	glut_max_l/activation	iliopsoas_l/activation	rect_fem_l/activation	  vasti_l/activation	gastroc_l/activation	 soleus_l/activation	tib_ant_l/activation	
          0.00000000	         -9.04627823	          0.00000000	          0.89483307	         -6.37331273	         28.36669309	        -12.40339819	         -2.73465510	          5.56340257	          8.01948604	          2.06099633	          0.37483978	          0.05003020	          0.09443513	          0.05000636	          0.07677983	          0.06787794	          0.05004428	          0.05766261	          0.30085795	          0.05001359	          0.24593853	          0.05000381	          0.87850455	          0.05000539	          0.05000096	          0.28975209	          0.58038054	          0.05000077	
          0.00922450	         -9.03537057	          0.01499212	          0.89414659	         -5.87099172	         27.44900993	        -15.03437077	         -2.18572972	          4.76569274	          7.77321021	          2.37874107	          0.34297115	          0.05001491	          0.13121740	          0.05000267	          0.06654940	          0.06666244	          0.05000108	          0.05000088	          0.34310048	          0.05003023	          0.21316762	          0.05000249	          0.76144039	          0.05000311	          0.05000059	          0.25114134	          0.50304219	          0.05000048	
          0.01844900	         -9.02343855	          0.03005181	          0.89337268	         -5.15646032	         26.56276525	        -18.02062908	         -2.24196580	          3.74996684	          7.41199549	          2.70644970	          0.31076968	          0.05015755	          0.18408503	          0.05000258	          0.05768225	          0.05778063	          0.06655831	          0.05795113	          0.33434882	          0.08642292	          0.18476345	          0.05000159	          0.65997505	          0.05000231	          0.05000049	          0.21767564	          0.43600943	          0.05000041	
          0.02767351	         -9.01492144	          0.04496626	          0.89267859	         -4.19891319	         25.69207221	        -21.34293973	         -2.42904663	          2.35066796	          7.02646610	          3.02155693	          0.27287989	          0.06654324	          0.29089270	          0.05000124	          0.05000196	          0.05008251	          0.05768971	          0.05022923	          0.44168995	          0.07491540	          0.16014410	          0.05002736	          0.57203039	          0.05000175	          0.05000054	          0.18866940	          0.37790910	          0.05000028	
          0.03689801	         -9.01556363	          0.05945384	          0.89232085	         -2.97941099	         24.88620981	        -24.94649561	         -2.63940569	          0.49336895	          6.51299736	          3.29409532	          0.26007023	          0.05768544	          0.38089157	          0.05000097	          0.05000207	          0.14100999	          0.05000518	          0.05000216	          0.48311738	          0.06493628	          0.13880551	          0.05007572	          0.49580475	          0.17021379	          0.05000174	          0.16352838	          0.32755091	          0.38207194	
          0.04612251	         -9.02777342	          0.07333027	          0.89238783	         -1.56944526	         24.16489235	        -28.66002104	         -2.91490774	         -1.20092566	          6.08360882	          3.50322950	          0.23340532	          0.05003043	          0.40568079	          0.05000092	          0.05000218	          0.19639011	          0.05000266	          0.05000210	          0.51626105	          0.05628992	          0.12031270	          0.05000753	          0.42973662	          0.33615016	          0.05000102	          0.14173767	          0.28390321	          0.36810098	
          0.05534701	         -9.05172043	          0.08657865	          0.89293799	         -0.07785137	         23.51152602	        -32.20943997	         -3.23235415	         -1.75282525	          5.79610165	          3.64727936	          0.21966855	          0.05002872	          0.39820676	          0.05000126	          0.05000296	          0.21194019	          0.05000484	          0.05000511	          0.50425294	          0.05002172	          0.10862899	          0.05000143	          0.37247252	          0.46504930	          0.05000066	          0.12285100	          0.24607180	          0.46606603	
          0.06457152	         -9.08499897	          0.09929557	          0.89401188	          1.43530434	         22.90072201	        -35.41734591	         -3.56447333	         -1.87229281	          5.66756710	          3.73617575	          0.20644556	          0.05002886	          0.38288870	          0.05000143	          0.05000346	          0.21536279	          0.05000566	          0.05000757	          0.48210121	          0.05003693	          0.16970542	          0.05000127	          0.32283963	          0.57537001	          0.05000059	          0.10648195	          0.21328163	          0.47311029	
          0.07379602	         -9.12504542	          0.11159883	          0.89552741	          2.93389829	         22.30504932	        -38.20888508	         -3.87510166	         -1.80391912	          5.65766913	          3.78229504	          0.19709339	          0.05002967	          0.36185678	          0.05000163	          0.05000403	          0.21034746	          0.05000654	          0.05000972	          0.45413586	          0.05001679	          0.21233475	          0.05000109	          0.27982412	          0.65023677	          0.05000060	          0.09729007	          0.18486092	          0.45320343	
          0.08302052	         -9.16931865	          0.12359790	          0.89735347	          4.39753532	         21.69947494	        -40.56717673	         -4.13120382	         -1.59734207	          5.72087762	          3.79683740	          0.19224519	          0.05003145	          0.34257334	          0.05000174	          0.05000429	          0.20246041	          0.05000589	          0.05000731	          0.42840643	          0.05001275	          0.26397677	          0.05000103	          0.25544373	          0.68923515	          0.05000065	          0.09532558	          0.16022742	          0.42936798	
          0.09224502	         -9.21566255	          0.13537593	          0.89935893	          5.82155774	         21.06542155	        -42.51488803	         -4.30842606	         -1.29740310	          5.81807130	          3.78794487	          0.18916773	          0.05003017	          0.32605478	          0.05000170	          0.05000429	          0.19561243	          0.05000504	          0.05000548	          0.40714137	          0.05001036	          0.32015796	          0.05000107	          0.24560793	          0.69867818	          0.05000074	          0.08855551	          0.13887644	          0.40019982	
          0.10146953	         -9.26175633	          0.14698870	          0.90143296	          7.21118684	         20.39029717	        -44.09924890	         -4.39238917	         -0.91840135	          5.92721025	          3.75993165	          0.18629281	          0.05002754	          0.30823932	          0.05000166	          0.05000437	          0.19019769	          0.05000433	          0.05000450	          0.39047692	          0.05000783	          0.38099890	          0.05000111	          0.24179196	          0.68502577	          0.05000085	          0.07680823	          0.12037059	          0.36859960	
          0.11069403	         -9.30555929	          0.15847096	          0.90348895	          8.57626968	         19.66781398	        -45.37626016	         -4.37862411	         -0.46933519	          6.03859327	          3.71467958	          0.18284099	          0.05002442	          0.28853880	          0.05000163	          0.05000457	          0.18525466	          0.05000383	          0.05000405	          0.37736541	          0.05000592	          0.44468432	          0.05000113	          0.24104744	          0.65468365	          0.05000097	          0.06657875	          0.10433074	          0.34035903	
          0.11991853	         -9.34545450	          0.16984290	          0.90546098	          9.92851264	         18.89734241	        -46.40366363	         -4.27124352	          0.03711330	          6.14904927	          3.65269669	          0.17819823	          0.05002164	          0.26803805	          0.05000161	          0.05000489	          0.17978231	          0.05000348	          0.05000382	          0.36685084	          0.05000459	          0.50842357	          0.05000115	          0.24202667	          0.61433629	          0.05000108	          0.05771139	          0.09042828	          0.31434687	
